<svg width="185" height="42" viewBox="0 0 185 42" fill="none" xmlns="http://www.w3.org/2000/svg">
<circle cx="19.2859" cy="22.2859" r="18.6429" fill="#BEE4E2"/>
<path d="M0 21C0 11.0589 8.05886 3 18 3C27.9411 3 35.9999 11.0589 36 21C36 30.9411 27.9412 38.9999 18 39C8.05886 39 0 30.9412 0 21ZM18 38.1495C27.4714 38.1495 35.1495 30.4714 35.1495 21C35.1495 11.5285 27.4714 3.85038 18 3.85038C8.5285 3.85038 0.850383 11.5285 0.850383 21C0.850383 30.4714 8.5285 38.1495 18 38.1495Z" fill="#66BAB7"/>
<path d="M18.0002 38.8202C27.8419 38.8202 35.8202 30.8419 35.8202 21.0002C35.8202 11.1585 27.8419 3.18018 18.0002 3.18018C8.15846 3.18018 0.180176 11.1585 0.180176 21.0002C0.180176 30.8419 8.15846 38.8202 18.0002 38.8202Z" fill="#66BAB7"/>
<path d="M25.0671 13.549L26.8892 11.4311C27.1128 11.1714 27.0756 10.7858 26.8063 10.5701C26.5362 10.3544 26.1371 10.3903 25.9135 10.6504L24.0915 12.7683C23.8678 13.028 23.905 13.4137 24.1743 13.6293C24.4136 13.8205 24.8207 13.8356 25.0671 13.549Z" fill="white"/>
<path d="M22.4895 12.653C22.7267 12.7188 23.2331 12.6886 23.3998 12.2838L24.4323 9.77569C24.5588 9.46801 24.3566 9.13446 23.9805 9.03099C23.6054 8.92712 23.1962 9.09292 23.0702 9.4002L22.0377 11.9083C21.9112 12.2156 22.1134 12.5495 22.4895 12.653Z" fill="white"/>
<path d="M28.845 13.0442C28.6846 12.7218 28.3214 12.6062 28.0334 12.7858L25.687 14.2459C25.399 14.4251 25.2955 14.8311 25.4559 15.1531C25.6663 15.5761 26.086 15.5245 26.2674 15.4115L28.6138 13.9515C28.9015 13.7727 29.0053 13.3662 28.845 13.0442Z" fill="white"/>
<path d="M16.6407 14.6976C13.2987 12.1405 9.06885 14.8895 9.06885 18.4488C9.06885 21.6565 10.4075 25.7484 11.4828 29.0361C11.6599 29.5773 11.8276 30.0894 11.9772 30.5635C11.9804 30.5738 11.9841 30.5838 11.9881 30.5938C12.1534 31.0057 12.4613 31.7728 13.4461 31.7728C14.3295 31.7728 14.9056 31.1665 15.027 30.1049C15.1918 28.5183 15.6473 26.9566 16.3808 25.4628C16.4793 25.2632 16.7929 25.2378 16.9023 25.4603C17.6197 26.9212 18.069 28.4846 18.2384 30.1106C18.3592 31.1668 18.9384 31.7725 19.8281 31.7725C20.8137 31.7725 21.121 31.0048 21.2861 30.5921C21.2901 30.5821 21.2936 30.5724 21.2967 30.5621C21.4235 30.1617 21.5629 29.731 21.7097 29.2769C22.7636 26.0221 24.2062 21.5634 24.2062 18.2729C24.2062 14.2435 19.5242 12.5024 16.6407 14.6976ZM20.8948 29.0135C20.7492 29.4637 20.6109 29.8906 20.485 30.2885C20.2702 30.8206 20.1248 30.916 19.8281 30.916C19.6544 30.916 19.1926 30.916 19.0901 30.0177C18.9107 28.2952 18.4332 26.6347 17.6714 25.0827C17.1928 24.1079 15.9649 24.3672 15.6119 25.085C14.8336 26.6698 14.3501 28.3286 14.175 30.012C14.0716 30.916 13.6169 30.916 13.4458 30.916C13.1494 30.916 13.0043 30.8209 12.7889 30.2894C12.6396 29.8175 12.4728 29.3077 12.2968 28.7699C11.2963 25.7102 9.92568 21.52 9.92568 18.4488C9.92568 15.0755 13.8791 13.4058 16.3162 15.5399L16.3179 15.5416C16.3399 15.5661 16.8826 16.1274 17.0748 16.4421C17.3684 16.9222 18.0993 16.4758 17.8062 15.9957C17.6512 15.7418 17.4752 15.5062 17.2816 15.2905C19.9352 13.4292 23.3494 15.3868 23.3494 18.2729C23.3494 21.4283 21.9308 25.8124 20.8948 29.0135Z" fill="white"/>
<path d="M9.99984 17.0001C9.19984 18.2001 11.9998 26.8334 13.4998 31.0001L15 25.5C15.8 23.9 17 24.1667 17.5 24.5L19 28.5C19.8 32.1 20.6667 30 21 28.5C21.8 27.7 23 20.5 23 17C22.2 14.2 19.3333 14.5 18 15C17.6 15.4 17.8333 15.8334 18 16C18 16.4 17.3333 16.5001 17 16.5001C13.5 13.0001 10.9998 15.5001 9.99984 17.0001Z" fill="white" stroke="white"/>
<path d="M49.588 23.368H71.148V27.092H49.588V23.368ZM46.76 16.76H69.468V20.4H46.76V16.76ZM58.94 24.068L62.02 26.308C58.912 29.976 53.116 33.42 47.992 35.128C47.404 34.036 46.368 32.552 45.388 31.6C50.624 30.396 56.224 27.344 58.94 24.068ZM60.928 18.804H65.016V31.376C65.016 33.392 64.596 34.4 63.196 34.988C61.796 35.576 59.948 35.632 57.54 35.632C57.344 34.512 56.672 32.832 56.112 31.768C57.652 31.852 59.668 31.852 60.2 31.852C60.732 31.852 60.928 31.712 60.928 31.292V18.804ZM49.588 19.532L53.9 19.98C53.256 22.388 52.388 25.216 51.744 27.092H47.712C48.356 25.104 49.14 22.024 49.588 19.532ZM45.612 10.936H57.736V14.436H45.612V10.936ZM50.624 9.06H54.656V16.256H50.624V9.06ZM61.852 9.06H65.884V16.256H61.852V9.06ZM58.772 10.908H71.148V14.408H58.772V10.908ZM92.288 31.292L94.416 28.66C96.656 29.836 100.128 31.684 101.836 32.86L99.54 35.856C97.972 34.624 94.612 32.636 92.288 31.292ZM94.332 9.06L98.476 10.18C97.58 11.72 96.74 13.204 96.068 14.184L92.876 13.148C93.408 11.972 94.024 10.292 94.332 9.06ZM83.104 12.7H101.276V15.864H83.104V12.7ZM82.628 20.68H101.556V23.956H82.628V20.68ZM82.964 25.328H101.248V28.632H82.964V25.328ZM83.804 16.76H100.324V19.756H83.804V16.76ZM89.908 13.96H93.968V22.024H89.908V13.96ZM85.344 10.124L88.928 8.892C89.516 9.844 90.16 11.16 90.496 12L86.8 13.484C86.52 12.588 85.876 11.16 85.344 10.124ZM89.768 24.208H93.576C93.128 30.088 91.924 33.868 83.356 35.772C83.02 34.792 82.096 33.28 81.34 32.468C88.788 31.152 89.404 28.632 89.768 24.208ZM76.44 12.364L78.792 9.536C80.052 10.432 82.04 11.776 82.992 12.616L80.528 15.808C79.632 14.884 77.728 13.4 76.44 12.364ZM74.928 20.148L76.916 17.012C78.344 17.796 80.668 19.028 81.788 19.812L79.716 23.284C78.68 22.444 76.412 21.072 74.928 20.148ZM75.6 32.972C76.888 30.816 78.708 27.344 80.136 24.068L82.992 26.28C81.76 29.276 80.276 32.412 78.848 35.184L75.6 32.972Z" fill="#198783"/>
<path d="M111.904 24.9H125.278V26.556H111.904V24.9ZM110.482 18.672H124.432V20.31H110.482V18.672ZM119.626 19.338H121.408V32.37C121.408 33.414 121.174 33.918 120.508 34.206C119.842 34.494 118.816 34.548 117.25 34.548C117.16 34.044 116.872 33.252 116.602 32.766C117.736 32.802 118.834 32.802 119.158 32.784C119.5 32.766 119.626 32.676 119.626 32.37V19.338ZM118.6 25.494L120.094 26.178C117.808 29.328 113.938 32.19 110.338 33.666C110.068 33.234 109.528 32.532 109.132 32.172C112.678 30.912 116.584 28.212 118.6 25.494ZM112.264 19.716L114.1 19.914C113.668 22.092 113.038 24.882 112.57 26.538H110.752C111.256 24.792 111.904 21.912 112.264 19.716ZM131.308 32.91H142.198V33.864H131.308V32.91ZM133.198 31.416H140.578V32.334H133.198V31.416ZM128.446 26.502H145.078V27.636H128.446V26.502ZM132.226 19.356L133.234 19.608C132.928 20.382 132.388 21.192 131.83 21.714C131.65 21.57 131.2 21.3 130.948 21.192C131.524 20.67 131.956 20.022 132.226 19.356ZM137.5 21.678H142.63V22.704H137.5V21.678ZM132.1 20.13H136.348V20.994H132.1V20.13ZM131.11 21.804H136.672V22.704H131.11V21.804ZM138.868 18.258H142.072V19.446H138.868V18.258ZM142.414 21.678H142.684L142.936 21.624L143.782 21.984C142.738 24.45 140.344 25.818 137.68 26.448C137.536 26.142 137.23 25.674 136.996 25.404C139.354 24.954 141.604 23.73 142.414 21.858V21.678ZM138.238 18.258H139.552V19.23C139.552 20.22 139.174 21.246 137.536 21.948C137.374 21.66 136.888 21.102 136.618 20.922C138.004 20.418 138.238 19.824 138.238 19.194V18.258ZM133.378 20.526H134.476V21.804C134.476 22.794 134.116 24.09 131.884 24.918C131.74 24.648 131.416 24.306 131.164 24.108C133.144 23.532 133.378 22.506 133.378 21.786V20.526ZM134.836 27.132H136.15V28.86C136.15 30.012 135.394 30.858 132.532 31.29C132.388 31.002 132.046 30.552 131.794 30.3C134.314 30.066 134.836 29.508 134.836 28.86V27.132ZM137.716 27.132H139.066V29.652C139.066 30.03 139.156 30.066 139.642 30.066C139.876 30.066 141.136 30.066 141.46 30.066C141.748 30.066 141.838 30.066 141.892 29.976C142.162 30.12 142.612 30.228 142.954 30.264C142.864 30.75 142.504 30.912 141.64 30.912C141.352 30.912 139.768 30.912 139.48 30.912C138.076 30.912 137.716 30.678 137.716 29.652V27.132ZM133.414 23.082L134.062 22.434C134.908 22.902 135.952 23.586 136.51 24.072L135.808 24.828C135.286 24.324 134.242 23.586 133.414 23.082ZM137.5 23.73L138.112 22.866C140.056 23.586 142.738 24.72 144.124 25.458L143.494 26.448C142.144 25.71 139.498 24.522 137.5 23.73ZM141.424 18.258H142.774V19.788C142.774 20.13 142.81 20.238 143.008 20.238C143.152 20.238 143.584 20.238 143.746 20.238C143.962 20.238 144.34 20.22 144.538 20.166C144.574 20.49 144.592 20.976 144.646 21.3C144.448 21.372 144.106 21.372 143.8 21.372C143.566 21.372 143.062 21.372 142.828 21.372C141.658 21.372 141.424 20.922 141.424 19.77V18.258ZM130.264 28.32H143.332V34.494H141.73V29.292H131.794V34.494H130.264V28.32ZM128.86 18.348H136.924V19.374H128.86V18.348ZM129.436 18.996H130.75V24.054C130.75 24.702 130.912 24.918 131.56 24.918C132.1 24.918 134.602 24.918 135.142 24.918C135.646 24.918 136.492 24.882 136.87 24.81C136.906 25.152 136.942 25.584 136.996 25.872C136.672 25.962 135.952 25.98 135.25 25.98C134.656 25.98 131.902 25.98 131.47 25.98C129.886 25.98 129.436 25.422 129.436 24.018V18.996ZM159.226 22.704L160.558 23.262C159.496 24.882 157.84 26.34 156.256 27.294C156.022 26.934 155.608 26.484 155.248 26.178C156.706 25.404 158.362 24.072 159.226 22.704ZM160.864 25.224L162.196 25.8C160.918 27.87 158.812 29.58 156.616 30.66C156.4 30.282 156.004 29.76 155.662 29.436C157.678 28.554 159.766 27.006 160.864 25.224ZM162.34 27.924L163.708 28.536C162.16 31.542 159.298 33.432 155.626 34.53C155.464 34.098 155.086 33.504 154.744 33.126C158.182 32.298 160.954 30.57 162.34 27.924ZM159.766 18.474C160.882 20.274 162.988 22.164 164.86 23.154C164.482 23.46 163.978 24.09 163.726 24.522C161.872 23.352 159.766 21.156 158.524 19.05L159.766 18.474ZM158.992 17.754L160.45 18.222C159.334 20.886 157.408 23.118 155.032 24.612C154.816 24.252 154.312 23.658 153.988 23.388C156.238 22.092 158.074 19.968 158.992 17.754ZM148.66 23.28H153.754V24.594H148.66V23.28ZM148.66 25.674H153.754V26.988H148.66V25.674ZM147.922 20.832H154.33V22.218H147.922V20.832ZM149.326 28.122H153.862V33.468H149.326V32.082H152.458V29.508H149.326V28.122ZM148.624 28.122H149.974V34.278H148.624V28.122ZM149.812 18.384L151.036 17.736C151.54 18.474 152.08 19.446 152.368 20.094L151.054 20.868C150.82 20.202 150.262 19.14 149.812 18.384ZM176.956 23.874H183.976V25.53H176.956V23.874ZM180.376 25.044H182.068V34.44H180.376V25.044ZM168.316 19.518H169.99V25.926C169.99 28.536 169.81 32.226 168.46 34.584C168.172 34.278 167.452 33.702 167.074 33.504C168.226 31.362 168.316 28.284 168.316 25.926V19.518ZM182.554 18.024L183.688 19.5C181.798 20.22 179.044 20.706 176.758 20.994C176.686 20.58 176.452 19.95 176.254 19.554C178.486 19.248 181.042 18.69 182.554 18.024ZM169.252 22.344H174.778V27.978H169.252V26.448H173.122V23.874H169.252V22.344ZM174.472 18.168L175.57 19.608C173.734 20.31 171.034 20.724 168.802 20.922C168.73 20.526 168.514 19.914 168.316 19.518C170.476 19.266 172.996 18.798 174.472 18.168ZM176.254 19.554H177.982V25.404C177.982 28.23 177.586 32.172 175.084 34.566C174.814 34.242 174.112 33.648 173.734 33.414C176.038 31.182 176.254 27.942 176.254 25.386V19.554Z" fill="#198783"/>
</svg>
